<mxfile host="app.diagrams.net" modified="2020-11-19T15:03:18.354Z" agent="5.0 (X11)" etag="Q2Q-as3v0brbvy2a3E1v" version="13.9.2" type="github">
  <diagram id="5jZB0MULv0s9Xh8zhgM-" name="Page-1">
    <mxGraphModel dx="2263" dy="813" grid="1" gridSize="10" guides="1" tooltips="1" connect="1" arrows="1" fold="1" page="1" pageScale="1" pageWidth="850" pageHeight="1100" math="0" shadow="0">
      <root>
        <mxCell id="0" />
        <mxCell id="1" parent="0" />
        <mxCell id="ex7DYZFk-IQbwmrOWY8H-68" value="" style="rounded=0;whiteSpace=wrap;html=1;" vertex="1" parent="1">
          <mxGeometry x="-412" y="159" width="360" height="465" as="geometry" />
        </mxCell>
        <mxCell id="3d7q3Th1NHqidStg-UQ_-11" value="" style="group" parent="1" vertex="1" connectable="0">
          <mxGeometry x="-10" y="107" width="450" height="540" as="geometry" />
        </mxCell>
        <mxCell id="3d7q3Th1NHqidStg-UQ_-2" value="" style="rounded=0;whiteSpace=wrap;html=1;" parent="3d7q3Th1NHqidStg-UQ_-11" vertex="1">
          <mxGeometry x="40" y="50" width="360" height="465" as="geometry" />
        </mxCell>
        <mxCell id="3d7q3Th1NHqidStg-UQ_-5" value="DriveTrain" style="text;html=1;align=center;verticalAlign=middle;resizable=0;points=[];autosize=1;" parent="3d7q3Th1NHqidStg-UQ_-11" vertex="1">
          <mxGeometry x="40" y="53" width="80" height="20" as="geometry" />
        </mxCell>
        <mxCell id="ex7DYZFk-IQbwmrOWY8H-40" style="edgeStyle=orthogonalEdgeStyle;rounded=0;orthogonalLoop=1;jettySize=auto;html=1;entryX=0.25;entryY=1;entryDx=0;entryDy=0;exitX=1;exitY=0.75;exitDx=0;exitDy=0;" edge="1" parent="3d7q3Th1NHqidStg-UQ_-11" source="3d7q3Th1NHqidStg-UQ_-26" target="ex7DYZFk-IQbwmrOWY8H-32">
          <mxGeometry relative="1" as="geometry" />
        </mxCell>
        <mxCell id="3d7q3Th1NHqidStg-UQ_-26" value="Engine" style="rounded=1;whiteSpace=wrap;html=1;fillColor=#fff2cc;strokeColor=#d6b656;" parent="3d7q3Th1NHqidStg-UQ_-11" vertex="1">
          <mxGeometry x="60" y="403" width="100" height="100" as="geometry" />
        </mxCell>
        <mxCell id="ex7DYZFk-IQbwmrOWY8H-39" style="edgeStyle=orthogonalEdgeStyle;rounded=0;orthogonalLoop=1;jettySize=auto;html=1;entryX=0.75;entryY=1;entryDx=0;entryDy=0;exitX=0;exitY=0.75;exitDx=0;exitDy=0;" edge="1" parent="3d7q3Th1NHqidStg-UQ_-11" source="3d7q3Th1NHqidStg-UQ_-39" target="ex7DYZFk-IQbwmrOWY8H-32">
          <mxGeometry relative="1" as="geometry" />
        </mxCell>
        <mxCell id="3d7q3Th1NHqidStg-UQ_-39" value="Gearbox" style="rounded=1;whiteSpace=wrap;html=1;fillColor=#fff2cc;strokeColor=#d6b656;" parent="3d7q3Th1NHqidStg-UQ_-11" vertex="1">
          <mxGeometry x="290" y="403" width="100" height="100" as="geometry" />
        </mxCell>
        <mxCell id="ex7DYZFk-IQbwmrOWY8H-35" style="edgeStyle=orthogonalEdgeStyle;rounded=0;orthogonalLoop=1;jettySize=auto;html=1;entryX=0;entryY=0.5;entryDx=0;entryDy=0;" edge="1" parent="3d7q3Th1NHqidStg-UQ_-11" source="ex7DYZFk-IQbwmrOWY8H-20" target="ex7DYZFk-IQbwmrOWY8H-33">
          <mxGeometry relative="1" as="geometry" />
        </mxCell>
        <mxCell id="ex7DYZFk-IQbwmrOWY8H-20" value="CAN socket" style="rounded=1;whiteSpace=wrap;html=1;fillColor=#ffe6cc;strokeColor=#d79b00;" vertex="1" parent="3d7q3Th1NHqidStg-UQ_-11">
          <mxGeometry x="40" y="263" width="50" height="40" as="geometry" />
        </mxCell>
        <mxCell id="ex7DYZFk-IQbwmrOWY8H-38" style="edgeStyle=orthogonalEdgeStyle;rounded=0;orthogonalLoop=1;jettySize=auto;html=1;entryX=0;entryY=0.5;entryDx=0;entryDy=0;" edge="1" parent="3d7q3Th1NHqidStg-UQ_-11" source="ex7DYZFk-IQbwmrOWY8H-33" target="ex7DYZFk-IQbwmrOWY8H-37">
          <mxGeometry relative="1" as="geometry" />
        </mxCell>
        <mxCell id="ex7DYZFk-IQbwmrOWY8H-58" value="&lt;div&gt;Add&lt;br&gt;&lt;/div&gt;&lt;div&gt;RX&lt;br&gt;&lt;/div&gt;" style="edgeStyle=orthogonalEdgeStyle;rounded=0;orthogonalLoop=1;jettySize=auto;html=1;exitX=0.25;exitY=1;exitDx=0;exitDy=0;entryX=0.25;entryY=0;entryDx=0;entryDy=0;" edge="1" parent="3d7q3Th1NHqidStg-UQ_-11" source="ex7DYZFk-IQbwmrOWY8H-33" target="ex7DYZFk-IQbwmrOWY8H-28">
          <mxGeometry relative="1" as="geometry" />
        </mxCell>
        <mxCell id="ex7DYZFk-IQbwmrOWY8H-33" value="CAN IO thread" style="rounded=1;whiteSpace=wrap;html=1;fillColor=#fff2cc;strokeColor=#d6b656;" vertex="1" parent="3d7q3Th1NHqidStg-UQ_-11">
          <mxGeometry x="175" y="57" width="100" height="100" as="geometry" />
        </mxCell>
        <mxCell id="ex7DYZFk-IQbwmrOWY8H-27" value="" style="group" vertex="1" connectable="0" parent="3d7q3Th1NHqidStg-UQ_-11">
          <mxGeometry x="175" y="203" width="100" height="100" as="geometry" />
        </mxCell>
        <mxCell id="ex7DYZFk-IQbwmrOWY8H-28" value="CAN buffer" style="rounded=1;whiteSpace=wrap;html=1;fillColor=#fff2cc;strokeColor=#d6b656;" vertex="1" parent="ex7DYZFk-IQbwmrOWY8H-27">
          <mxGeometry width="100" height="100" as="geometry" />
        </mxCell>
        <mxCell id="ex7DYZFk-IQbwmrOWY8H-29" value="" style="strokeWidth=2;html=1;shape=mxgraph.flowchart.database;whiteSpace=wrap;" vertex="1" parent="ex7DYZFk-IQbwmrOWY8H-27">
          <mxGeometry x="35" y="6" width="30" height="30" as="geometry" />
        </mxCell>
        <mxCell id="ex7DYZFk-IQbwmrOWY8H-30" value="&lt;div&gt;&lt;font style=&quot;font-size: 10px&quot;&gt;&lt;i&gt;- RX buffer&lt;br&gt;&lt;/i&gt;&lt;/font&gt;&lt;/div&gt;&lt;div&gt;&lt;font style=&quot;font-size: 10px&quot;&gt;&lt;i&gt;- TX buffer&lt;/i&gt;&lt;/font&gt;&lt;/div&gt;&lt;div&gt;&lt;font style=&quot;font-size: 10px&quot;&gt;&lt;i&gt;&lt;br&gt;&lt;/i&gt;&lt;/font&gt;&lt;/div&gt;" style="text;html=1;strokeColor=none;fillColor=none;align=center;verticalAlign=middle;whiteSpace=wrap;rounded=0;" vertex="1" parent="ex7DYZFk-IQbwmrOWY8H-27">
          <mxGeometry x="10" y="73" width="70" height="20" as="geometry" />
        </mxCell>
        <mxCell id="ex7DYZFk-IQbwmrOWY8H-32" value="Vehicle" style="rounded=1;whiteSpace=wrap;html=1;fillColor=#fff2cc;strokeColor=#d6b656;" vertex="1" parent="3d7q3Th1NHqidStg-UQ_-11">
          <mxGeometry x="175" y="352" width="100" height="100" as="geometry" />
        </mxCell>
        <mxCell id="ex7DYZFk-IQbwmrOWY8H-37" value="CAN socket" style="rounded=1;whiteSpace=wrap;html=1;fillColor=#ffe6cc;strokeColor=#d79b00;" vertex="1" parent="3d7q3Th1NHqidStg-UQ_-11">
          <mxGeometry x="350" y="262.5" width="50" height="40" as="geometry" />
        </mxCell>
        <mxCell id="ex7DYZFk-IQbwmrOWY8H-53" value="&lt;div&gt;Pull&lt;/div&gt;&lt;div&gt;RX&lt;/div&gt;" style="endArrow=classic;html=1;entryX=0.25;entryY=0;entryDx=0;entryDy=0;exitX=0.25;exitY=1;exitDx=0;exitDy=0;" edge="1" parent="3d7q3Th1NHqidStg-UQ_-11" source="ex7DYZFk-IQbwmrOWY8H-28" target="ex7DYZFk-IQbwmrOWY8H-32">
          <mxGeometry width="50" height="50" relative="1" as="geometry">
            <mxPoint x="200" y="290" as="sourcePoint" />
            <mxPoint x="250" y="240" as="targetPoint" />
          </mxGeometry>
        </mxCell>
        <mxCell id="ex7DYZFk-IQbwmrOWY8H-54" value="Add&lt;br&gt;&lt;div&gt;TX&lt;br&gt;&lt;/div&gt;" style="endArrow=classic;html=1;exitX=0.75;exitY=0;exitDx=0;exitDy=0;entryX=0.75;entryY=1;entryDx=0;entryDy=0;" edge="1" parent="3d7q3Th1NHqidStg-UQ_-11" source="ex7DYZFk-IQbwmrOWY8H-32" target="ex7DYZFk-IQbwmrOWY8H-28">
          <mxGeometry width="50" height="50" relative="1" as="geometry">
            <mxPoint x="130" y="300" as="sourcePoint" />
            <mxPoint x="180" y="250" as="targetPoint" />
          </mxGeometry>
        </mxCell>
        <mxCell id="ex7DYZFk-IQbwmrOWY8H-59" value="&lt;div&gt;Pull&lt;/div&gt;&lt;div&gt;TX&lt;br&gt;&lt;/div&gt;" style="edgeStyle=orthogonalEdgeStyle;rounded=0;orthogonalLoop=1;jettySize=auto;html=1;exitX=0.75;exitY=0;exitDx=0;exitDy=0;entryX=0.75;entryY=1;entryDx=0;entryDy=0;" edge="1" parent="3d7q3Th1NHqidStg-UQ_-11" source="ex7DYZFk-IQbwmrOWY8H-28" target="ex7DYZFk-IQbwmrOWY8H-33">
          <mxGeometry relative="1" as="geometry" />
        </mxCell>
        <mxCell id="3d7q3Th1NHqidStg-UQ_-29" value="&lt;div&gt;RPM&lt;/div&gt;&lt;div&gt;Speed&lt;br&gt;&lt;/div&gt;" style="edgeStyle=orthogonalEdgeStyle;rounded=0;orthogonalLoop=1;jettySize=auto;html=1;exitX=1;exitY=0.5;exitDx=0;exitDy=0;entryX=0;entryY=0.5;entryDx=0;entryDy=0;" parent="1" source="3d7q3Th1NHqidStg-UQ_-2" target="3d7q3Th1NHqidStg-UQ_-53" edge="1">
          <mxGeometry relative="1" as="geometry">
            <mxPoint x="660" y="390" as="targetPoint" />
          </mxGeometry>
        </mxCell>
        <mxCell id="3d7q3Th1NHqidStg-UQ_-53" value="" style="rounded=0;whiteSpace=wrap;html=1;" parent="1" vertex="1">
          <mxGeometry x="470" y="157" width="360" height="465" as="geometry" />
        </mxCell>
        <mxCell id="3d7q3Th1NHqidStg-UQ_-54" value="OutputHandler" style="text;html=1;align=center;verticalAlign=middle;resizable=0;points=[];autosize=1;" parent="1" vertex="1">
          <mxGeometry x="470" y="161" width="110" height="20" as="geometry" />
        </mxCell>
        <mxCell id="ex7DYZFk-IQbwmrOWY8H-51" style="edgeStyle=orthogonalEdgeStyle;rounded=0;orthogonalLoop=1;jettySize=auto;html=1;entryX=0;entryY=0.5;entryDx=0;entryDy=0;" edge="1" parent="1" source="ex7DYZFk-IQbwmrOWY8H-45" target="ex7DYZFk-IQbwmrOWY8H-50">
          <mxGeometry relative="1" as="geometry" />
        </mxCell>
        <mxCell id="ex7DYZFk-IQbwmrOWY8H-45" value="CAN socket" style="rounded=1;whiteSpace=wrap;html=1;fillColor=#ffe6cc;strokeColor=#d79b00;" vertex="1" parent="1">
          <mxGeometry x="470" y="369.5" width="50" height="40" as="geometry" />
        </mxCell>
        <mxCell id="ex7DYZFk-IQbwmrOWY8H-46" value="Print CAN messages" style="rounded=1;whiteSpace=wrap;html=1;fillColor=#fff2cc;strokeColor=#d6b656;" vertex="1" parent="1">
          <mxGeometry x="600" y="469" width="100" height="100" as="geometry" />
        </mxCell>
        <mxCell id="ex7DYZFk-IQbwmrOWY8H-65" value="&lt;div&gt;Add&lt;br&gt;&lt;/div&gt;&lt;div&gt;RX&lt;br&gt;&lt;/div&gt;" style="edgeStyle=orthogonalEdgeStyle;rounded=0;orthogonalLoop=1;jettySize=auto;html=1;entryX=0.5;entryY=0;entryDx=0;entryDy=0;" edge="1" parent="1" source="ex7DYZFk-IQbwmrOWY8H-50" target="ex7DYZFk-IQbwmrOWY8H-61">
          <mxGeometry relative="1" as="geometry" />
        </mxCell>
        <mxCell id="ex7DYZFk-IQbwmrOWY8H-50" value="CAN IO thread" style="rounded=1;whiteSpace=wrap;html=1;fillColor=#fff2cc;strokeColor=#d6b656;" vertex="1" parent="1">
          <mxGeometry x="600" y="181" width="100" height="100" as="geometry" />
        </mxCell>
        <mxCell id="ex7DYZFk-IQbwmrOWY8H-60" value="" style="group" vertex="1" connectable="0" parent="1">
          <mxGeometry x="600" y="327" width="100" height="100" as="geometry" />
        </mxCell>
        <mxCell id="ex7DYZFk-IQbwmrOWY8H-61" value="CAN buffer" style="rounded=1;whiteSpace=wrap;html=1;fillColor=#fff2cc;strokeColor=#d6b656;" vertex="1" parent="ex7DYZFk-IQbwmrOWY8H-60">
          <mxGeometry width="100" height="100" as="geometry" />
        </mxCell>
        <mxCell id="ex7DYZFk-IQbwmrOWY8H-62" value="" style="strokeWidth=2;html=1;shape=mxgraph.flowchart.database;whiteSpace=wrap;" vertex="1" parent="ex7DYZFk-IQbwmrOWY8H-60">
          <mxGeometry x="35" y="6" width="30" height="30" as="geometry" />
        </mxCell>
        <mxCell id="ex7DYZFk-IQbwmrOWY8H-63" value="&lt;div&gt;&lt;font style=&quot;font-size: 10px&quot;&gt;&lt;i&gt;- RX buffer&lt;br&gt;&lt;/i&gt;&lt;/font&gt;&lt;/div&gt;&lt;div&gt;&lt;font style=&quot;font-size: 10px&quot;&gt;&lt;i&gt;&lt;br&gt;&lt;/i&gt;&lt;/font&gt;&lt;/div&gt;" style="text;html=1;strokeColor=none;fillColor=none;align=center;verticalAlign=middle;whiteSpace=wrap;rounded=0;" vertex="1" parent="ex7DYZFk-IQbwmrOWY8H-60">
          <mxGeometry x="10" y="73" width="70" height="20" as="geometry" />
        </mxCell>
        <mxCell id="ex7DYZFk-IQbwmrOWY8H-11" value="&lt;div&gt;Add&lt;/div&gt;&lt;div&gt;TX&lt;br&gt;&lt;/div&gt;" style="edgeStyle=orthogonalEdgeStyle;rounded=0;orthogonalLoop=1;jettySize=auto;html=1;entryX=0.5;entryY=0;entryDx=0;entryDy=0;" edge="1" parent="1" source="3d7q3Th1NHqidStg-UQ_-17" target="ex7DYZFk-IQbwmrOWY8H-9">
          <mxGeometry relative="1" as="geometry" />
        </mxCell>
        <mxCell id="3d7q3Th1NHqidStg-UQ_-8" value="InputHandler" style="text;html=1;align=center;verticalAlign=middle;resizable=0;points=[];autosize=1;" parent="1" vertex="1">
          <mxGeometry x="-410.00307692307695" y="161" width="100" height="20" as="geometry" />
        </mxCell>
        <mxCell id="ex7DYZFk-IQbwmrOWY8H-17" value="" style="group" vertex="1" connectable="0" parent="1">
          <mxGeometry x="-286.9984615384615" y="330.9958823529412" width="526.5384615384615" height="280.29411764705884" as="geometry" />
        </mxCell>
        <mxCell id="ex7DYZFk-IQbwmrOWY8H-24" value="" style="group" vertex="1" connectable="0" parent="ex7DYZFk-IQbwmrOWY8H-17">
          <mxGeometry width="526.5384615384615" height="280.29411764705884" as="geometry" />
        </mxCell>
        <mxCell id="ex7DYZFk-IQbwmrOWY8H-26" value="" style="group" vertex="1" connectable="0" parent="ex7DYZFk-IQbwmrOWY8H-24">
          <mxGeometry width="526.5384615384615" height="280.29411764705884" as="geometry" />
        </mxCell>
        <mxCell id="ex7DYZFk-IQbwmrOWY8H-8" value="" style="strokeWidth=2;html=1;shape=mxgraph.flowchart.database;whiteSpace=wrap;" vertex="1" parent="ex7DYZFk-IQbwmrOWY8H-26">
          <mxGeometry x="40.38461538461539" y="6.052941176470588" width="34.61538461538461" height="30.264705882352942" as="geometry" />
        </mxCell>
        <mxCell id="ex7DYZFk-IQbwmrOWY8H-10" value="&lt;font style=&quot;font-size: 10px&quot;&gt;&lt;i&gt;- TX buffer&lt;/i&gt;&lt;/font&gt;" style="text;html=1;strokeColor=none;fillColor=none;align=center;verticalAlign=middle;whiteSpace=wrap;rounded=0;" vertex="1" parent="ex7DYZFk-IQbwmrOWY8H-26">
          <mxGeometry x="11.538461538461537" y="73.64411764705882" width="80.76923076923077" height="20.176470588235293" as="geometry" />
        </mxCell>
        <mxCell id="ex7DYZFk-IQbwmrOWY8H-9" value="CAN buffer" style="rounded=1;whiteSpace=wrap;html=1;fillColor=#fff2cc;strokeColor=#d6b656;" vertex="1" parent="ex7DYZFk-IQbwmrOWY8H-26">
          <mxGeometry width="100" height="100" as="geometry" />
        </mxCell>
        <mxCell id="ex7DYZFk-IQbwmrOWY8H-76" value="&lt;div&gt;&lt;font style=&quot;font-size: 10px&quot;&gt;&lt;i&gt;- RX buffer&lt;br&gt;&lt;/i&gt;&lt;/font&gt;&lt;/div&gt;&lt;div&gt;&lt;font style=&quot;font-size: 10px&quot;&gt;&lt;i&gt;&lt;br&gt;&lt;/i&gt;&lt;/font&gt;&lt;/div&gt;" style="text;html=1;strokeColor=none;fillColor=none;align=center;verticalAlign=middle;whiteSpace=wrap;rounded=0;" vertex="1" parent="ex7DYZFk-IQbwmrOWY8H-26">
          <mxGeometry x="11.53846153846149" y="73.6441176470588" width="70" height="20" as="geometry" />
        </mxCell>
        <mxCell id="ex7DYZFk-IQbwmrOWY8H-67" value="&lt;div&gt;Pull&lt;/div&gt;&lt;div&gt;TX&lt;br&gt;&lt;/div&gt;" style="edgeStyle=orthogonalEdgeStyle;rounded=0;orthogonalLoop=1;jettySize=auto;html=1;entryX=0.5;entryY=0;entryDx=0;entryDy=0;" edge="1" parent="1" source="ex7DYZFk-IQbwmrOWY8H-9" target="ex7DYZFk-IQbwmrOWY8H-1">
          <mxGeometry relative="1" as="geometry" />
        </mxCell>
        <mxCell id="3d7q3Th1NHqidStg-UQ_-17" value="Keyboard Input Reader" style="rounded=1;whiteSpace=wrap;html=1;fillColor=#fff2cc;strokeColor=#d6b656;" parent="1" vertex="1">
          <mxGeometry x="-286.99692307692305" y="181" width="100" height="100" as="geometry" />
        </mxCell>
        <mxCell id="ex7DYZFk-IQbwmrOWY8H-74" style="edgeStyle=orthogonalEdgeStyle;rounded=0;orthogonalLoop=1;jettySize=auto;html=1;entryX=0;entryY=0.5;entryDx=0;entryDy=0;" edge="1" parent="1" source="ex7DYZFk-IQbwmrOWY8H-1" target="ex7DYZFk-IQbwmrOWY8H-70">
          <mxGeometry relative="1" as="geometry" />
        </mxCell>
        <mxCell id="ex7DYZFk-IQbwmrOWY8H-1" value="CAN IO thread" style="rounded=1;whiteSpace=wrap;html=1;fillColor=#fff2cc;strokeColor=#d6b656;" vertex="1" parent="1">
          <mxGeometry x="-286.99423076923074" y="491.0029411764706" width="100" height="100" as="geometry" />
        </mxCell>
        <mxCell id="ex7DYZFk-IQbwmrOWY8H-73" value="&lt;div&gt;User&lt;/div&gt;&lt;div&gt;input&lt;br&gt;&lt;/div&gt;" style="edgeStyle=orthogonalEdgeStyle;rounded=0;orthogonalLoop=1;jettySize=auto;html=1;" edge="1" parent="1" source="ex7DYZFk-IQbwmrOWY8H-70" target="ex7DYZFk-IQbwmrOWY8H-20">
          <mxGeometry relative="1" as="geometry" />
        </mxCell>
        <mxCell id="ex7DYZFk-IQbwmrOWY8H-70" value="CAN socket" style="rounded=1;whiteSpace=wrap;html=1;fillColor=#ffe6cc;strokeColor=#d79b00;" vertex="1" parent="1">
          <mxGeometry x="-102" y="370.5" width="50" height="40" as="geometry" />
        </mxCell>
        <mxCell id="ex7DYZFk-IQbwmrOWY8H-75" value="&lt;div&gt;Pull&lt;/div&gt;&lt;div&gt;RX&lt;br&gt;&lt;/div&gt;" style="edgeStyle=orthogonalEdgeStyle;rounded=0;orthogonalLoop=1;jettySize=auto;html=1;entryX=0.5;entryY=0;entryDx=0;entryDy=0;" edge="1" parent="1" source="ex7DYZFk-IQbwmrOWY8H-61" target="ex7DYZFk-IQbwmrOWY8H-46">
          <mxGeometry relative="1" as="geometry" />
        </mxCell>
      </root>
    </mxGraphModel>
  </diagram>
</mxfile>
